<svg width="1858" height="1858" viewBox="0 0 1858 1858" fill="none" xmlns="http://www.w3.org/2000/svg">
<path d="M1858 743H1857.52L1672 557.478V186H1300.52L1115 0.477539V0H1858V743Z" fill="#96EADC"/>
<path d="M928.976 1500.37C823.47 1500.37 728.622 1476.39 644.431 1428.41C560.24 1380.43 493.633 1310.86 444.61 1219.7C395.588 1128.55 371.076 1018.46 371.076 889.456C371.076 759.382 395.588 648.767 444.61 557.608C493.633 466.45 560.24 396.882 644.431 348.904C728.622 300.926 823.47 276.938 928.976 276.938C1034.48 276.938 1129.06 300.926 1212.72 348.904C1296.91 396.882 1363.52 466.45 1412.54 557.608C1461.56 648.767 1486.08 759.382 1486.08 889.456C1486.08 995.54 1469.29 1088.83 1435.72 1169.33C1402.15 1249.82 1356.06 1316.19 1297.45 1368.44L1468.49 1581.94H1233.5L1137.59 1464.39C1073.11 1488.38 1003.58 1500.37 928.976 1500.37ZM626.047 889.456C626.047 1015.26 653.49 1111.49 708.374 1178.12C763.791 1244.76 837.325 1278.08 928.976 1278.08C951.889 1278.08 973.736 1275.94 994.517 1271.68L841.854 1070.17H1056.06L1143.98 1183.72C1171.69 1150.67 1193.01 1109.62 1207.93 1060.58C1223.38 1011 1231.1 953.96 1231.1 889.456C1231.1 763.114 1203.4 666.625 1147.98 599.989C1093.1 532.82 1020.09 499.235 928.976 499.235C837.325 499.235 763.791 532.82 708.374 599.989C653.49 666.625 626.047 763.114 626.047 889.456Z" fill="#96EADC"/>
<path d="M1858 1292.52V1858H1300.52L1115 1672.48V1672H1672V1115H1680.48L1858 1292.52Z" fill="#96EADC"/>
<path d="M186 1300.52V1672H557.479L743 1857.52V1858H0V1115H0.478516L186 1300.52Z" fill="#96EADC"/>
<path d="M743 177.521V186H186V743H185.521L0 557.479V0H565.479L743 177.521Z" fill="#96EADC"/>
</svg>
